<?xml version="1.0" encoding="utf-8"?>
<!-- Generator: Adobe Illustrator 21.1.0, SVG Export Plug-In . SVG Version: 6.00 Build 0)  -->
<svg version="1.1" xmlns="http://www.w3.org/2000/svg" xmlns:xlink="http://www.w3.org/1999/xlink" x="0px" y="0px"
	 viewBox="0 0 2566.3 907.1" style="enable-background:new 0 0 2566.3 907.1;" xml:space="preserve">
<style type="text/css">
	.st0{fill:#E1E6E9;}
	.st1{fill:#CBCBCB;}
	.st2{fill:#5FC090;}
	.st3{fill:#37B79E;}
	.st4{fill:#1E9791;}
	.st5{fill:#010101;}
	.st6{fill:#7F838C;}
	.st7{fill:#767983;}
	.st8{fill:#67B4E4;}
	.st9{fill:#51A6DC;}
	.st10{fill:#E55639;}
	.st11{fill:#CF4729;}
	.st12{fill:#F8BC33;}
	.st13{fill:#F39F33;}
	.st14{fill:#5D6067;}
	.st15{fill:#54575D;}
	.st16{fill:#7FC342;}
	.st17{fill:#F29A36;}
	.st18{fill:#E7812D;}
	.st19{fill:#6DB844;}
	.st20{fill:#E6B078;}
	.st21{fill:#B6E0F7;}
	.st22{fill:#D29B6E;}
	.st23{fill:#EFC087;}
	.st24{fill:#A1D1F0;}
	.st25{fill:#5C5E6F;}
	.st26{fill:#525363;}
	.st27{fill:#795651;}
	.st28{fill:#6A4C4C;}
	.st29{fill:#5B4247;}
	.st30{fill:#D8DEEC;}
	.st31{fill:#C8D0E2;}
	.st32{fill:#717588;}
	.st33{opacity:0.97;}
	.st34{fill:#AFB9D2;}
	.st35{fill:#606161;}
</style>
<g id="Layer_2">
	<g>
	</g>
	<g>
	</g>
	<g>
	</g>
	<g>
	</g>
	<g>
	</g>
	<g>
	</g>
	<g>
	</g>
	<g>
	</g>
	<g>
	</g>
	<g>
	</g>
	<g>
	</g>
	<g>
	</g>
	<g>
	</g>
	<g>
	</g>
	<g>
		<path class="st0" d="M365.5,587.6l-24.2,12.7c-3.9,2-8.5,2-12.4,0l-24.2-12.7C172,517.8,90.2,388.9,90.2,249.5v-85.2
			c0-6.7,5-12.5,11.7-13.2c45.8-4.8,82.2-37.6,88-79.1c0.9-6.6,6.5-11.6,13.2-11.6h264.2c6.7,0,12.3,5,13.2,11.6
			c5.8,41.5,42.2,74.2,88,79.1c6.7,0.7,11.7,6.5,11.7,13.2v85.2C580.2,388.9,498.4,517.8,365.5,587.6z"/>
		<path class="st1" d="M568.5,151.2c-45.8-4.8-82.2-37.6-88-79.1c-0.9-6.6-6.5-11.6-13.2-11.6h-18c2.6,57.5,43.5,98.2,87.9,102.9
			c6.7,0.7,11.7,6.5,11.7,13.2v85.2c0,139.4-81.8,268.2-214.6,338.1l-2.8,1.5c3.3,1,6.8,0.6,9.9-1l24.2-12.7
			c132.8-69.8,214.6-198.7,214.6-338.1v-85.2C580.2,157.7,575.2,151.9,568.5,151.2z"/>
		<path class="st2" d="M326.2,553.5c-60.2-31.7-110.3-77.2-144.9-131.6c-34.1-53.8-52.2-114.9-52.2-176.8v-48.3
			c0-7,4.2-13.3,10.8-15.9c35.8-14.2,64.7-40.8,80.5-74c2.8-5.9,8.8-9.7,15.4-9.7h198.7c6.6,0,12.6,3.7,15.4,9.7
			c15.8,33.2,44.7,59.8,80.5,74c6.5,2.6,10.8,8.9,10.8,15.9v48.3c0,61.8-18,123-52.2,176.8c-34.6,54.4-84.7,99.9-144.9,131.6l-1,0.5
			c-5,2.6-10.9,2.6-15.9,0L326.2,553.5z"/>
		<path class="st3" d="M530.5,180.9c-0.3-0.1-0.6-0.2-0.8-0.3c-0.5-0.2-0.9-0.4-1.4-0.6c-0.8-0.3-1.6-0.7-2.4-1
			c-0.5-0.2-0.9-0.4-1.4-0.6c-0.8-0.4-1.7-0.8-2.5-1.1c-0.4-0.2-0.8-0.3-1.1-0.5c-1.2-0.6-2.4-1.1-3.6-1.7c-0.1,0-0.2-0.1-0.3-0.1
			c-1.1-0.6-2.2-1.1-3.2-1.7c-0.4-0.2-0.8-0.4-1.1-0.6c-0.8-0.4-1.6-0.9-2.3-1.3c-0.4-0.2-0.9-0.5-1.3-0.7c-0.7-0.4-1.4-0.9-2.2-1.3
			c-0.4-0.3-0.8-0.5-1.2-0.8c-0.8-0.5-1.5-0.9-2.2-1.4c-0.4-0.2-0.7-0.5-1.1-0.7c-1-0.7-2-1.3-3-2c-0.1-0.1-0.2-0.1-0.2-0.2
			c-1.1-0.7-2.1-1.5-3.2-2.3c-0.3-0.2-0.6-0.5-1-0.7c-0.7-0.5-1.4-1.1-2.1-1.6c-0.4-0.3-0.8-0.6-1.1-0.9c-0.7-0.5-1.3-1-2-1.6
			c-0.4-0.3-0.8-0.6-1.1-0.9c-0.7-0.5-1.3-1.1-2-1.7c-0.3-0.3-0.7-0.6-1-0.9c-0.8-0.7-1.6-1.4-2.4-2.1c-0.2-0.1-0.3-0.3-0.5-0.4
			c-0.9-0.9-1.9-1.7-2.8-2.6c-0.3-0.3-0.5-0.5-0.8-0.8c-0.7-0.6-1.3-1.3-1.9-1.9c-0.3-0.3-0.7-0.7-1-1c-0.6-0.6-1.1-1.2-1.7-1.8
			c-0.3-0.4-0.7-0.7-1-1.1c-0.6-0.6-1.1-1.2-1.7-1.9c-0.3-0.3-0.6-0.7-0.9-1c-0.6-0.7-1.3-1.5-1.9-2.3c-0.2-0.2-0.4-0.4-0.6-0.7
			c-0.8-1-1.6-2-2.4-3c-0.2-0.3-0.4-0.5-0.6-0.8c-0.6-0.8-1.2-1.5-1.7-2.3c-0.3-0.4-0.5-0.7-0.8-1.1c-0.5-0.7-1-1.3-1.4-2
			c-0.3-0.4-0.5-0.8-0.8-1.2c-0.5-0.7-0.9-1.4-1.4-2.1c-0.3-0.4-0.5-0.8-0.8-1.2c-0.5-0.8-1-1.6-1.5-2.4c-0.2-0.3-0.4-0.6-0.5-0.9
			c-0.7-1.1-1.3-2.2-1.9-3.3c-0.1-0.2-0.3-0.5-0.4-0.7c-0.5-0.9-1-1.8-1.5-2.6c-0.2-0.4-0.4-0.8-0.6-1.2c-0.4-0.7-0.8-1.5-1.1-2.2
			c-0.2-0.4-0.4-0.9-0.6-1.3c-0.2-0.3-0.3-0.7-0.5-1c-2.8-5.9-8.8-9.7-15.4-9.7h-99.4v458.7c2.7,0,5.5-0.7,8-2l1-0.5
			c60.2-31.7,110.3-77.2,144.9-131.6c34.1-53.8,52.2-114.9,52.2-176.8v-48.3C541.2,189.8,537,183.5,530.5,180.9z"/>
		<path class="st4" d="M530.5,180.9c-0.3-0.1-0.6-0.2-0.8-0.3c-0.5-0.2-0.9-0.4-1.4-0.6c-0.8-0.3-1.6-0.7-2.4-1
			c-0.5-0.2-0.9-0.4-1.4-0.6c-0.8-0.4-1.7-0.8-2.5-1.1c-0.4-0.2-0.8-0.3-1.1-0.5c-1.2-0.6-2.4-1.1-3.6-1.7c-0.1,0-0.2-0.1-0.3-0.1
			c-1.1-0.6-2.2-1.1-3.2-1.7c-0.4-0.2-0.8-0.4-1.1-0.6c-0.8-0.4-1.6-0.9-2.3-1.3c-0.4-0.2-0.9-0.5-1.3-0.7c-0.7-0.4-1.4-0.9-2.2-1.3
			c-0.4-0.3-0.8-0.5-1.2-0.8c-0.8-0.5-1.5-0.9-2.2-1.4c-0.4-0.2-0.7-0.5-1.1-0.7c-1-0.7-2-1.3-3-2c-0.1-0.1-0.2-0.1-0.2-0.2
			c-1.1-0.7-2.1-1.5-3.2-2.3c-0.3-0.2-0.6-0.5-1-0.7c-0.7-0.5-1.4-1.1-2.1-1.6c-0.4-0.3-0.8-0.6-1.1-0.9c-0.7-0.5-1.3-1-2-1.6
			c-0.4-0.3-0.8-0.6-1.1-0.9c-0.7-0.5-1.3-1.1-2-1.7c-0.3-0.3-0.7-0.6-1-0.9c-0.8-0.7-1.6-1.4-2.4-2.1c-0.2-0.1-0.3-0.3-0.5-0.4
			c-0.9-0.9-1.9-1.7-2.8-2.6c-0.3-0.3-0.5-0.5-0.8-0.8c-0.7-0.6-1.3-1.3-1.9-1.9c-0.3-0.3-0.7-0.7-1-1c-0.6-0.6-1.1-1.2-1.7-1.8
			c-0.3-0.4-0.7-0.7-1-1.1c-0.6-0.6-1.1-1.2-1.7-1.9c-0.3-0.3-0.6-0.7-0.9-1c-0.6-0.7-1.3-1.5-1.9-2.3c-0.2-0.2-0.4-0.4-0.6-0.7
			c-0.8-1-1.6-2-2.4-3c-0.2-0.3-0.4-0.5-0.6-0.8c-0.6-0.8-1.2-1.5-1.7-2.3c-0.3-0.4-0.5-0.7-0.8-1.1c-0.5-0.7-1-1.3-1.4-2
			c-0.3-0.4-0.5-0.8-0.8-1.2c-0.5-0.7-0.9-1.4-1.4-2.1c-0.3-0.4-0.5-0.8-0.8-1.2c-0.5-0.8-1-1.6-1.5-2.4c-0.2-0.3-0.4-0.6-0.5-0.9
			c-0.7-1.1-1.3-2.2-1.9-3.3c-0.1-0.2-0.3-0.5-0.4-0.7c-0.5-0.9-1-1.8-1.5-2.6c-0.2-0.4-0.4-0.8-0.6-1.2c-0.4-0.7-0.8-1.5-1.1-2.2
			c-0.2-0.4-0.4-0.9-0.6-1.3c-0.2-0.3-0.3-0.7-0.5-1c-2.8-5.9-8.8-9.7-15.4-9.7H407c3.6,4.5,7.6,10.4,12.1,18.2
			c0.2,0.3,0.3,0.7,0.5,1c0.2,0.4,0.4,0.9,0.6,1.3c0.4,0.8,0.8,1.5,1.1,2.2c0.2,0.4,0.4,0.8,0.6,1.2c0.5,0.9,1,1.8,1.5,2.6
			c0.1,0.2,0.3,0.5,0.4,0.7c0.6,1.1,1.3,2.2,1.9,3.3c0.2,0.3,0.4,0.6,0.5,0.9c0.5,0.8,1,1.6,1.5,2.4c0.2,0.4,0.5,0.8,0.8,1.2
			c0.5,0.7,0.9,1.4,1.4,2.1c0.3,0.4,0.5,0.8,0.8,1.2c0.5,0.7,1,1.4,1.4,2c0.3,0.4,0.5,0.7,0.8,1.1c0.6,0.8,1.1,1.5,1.7,2.3
			c0.2,0.3,0.4,0.5,0.6,0.8c0.8,1,1.6,2,2.4,3c0.2,0.2,0.4,0.4,0.6,0.7c0.6,0.8,1.3,1.5,1.9,2.3c0.3,0.3,0.6,0.7,0.9,1
			c0.6,0.6,1.1,1.3,1.7,1.9c0.3,0.4,0.7,0.7,1,1.1c0.6,0.6,1.1,1.2,1.7,1.8c0.3,0.3,0.6,0.7,1,1c0.6,0.7,1.3,1.3,1.9,1.9
			c0.3,0.3,0.5,0.5,0.8,0.8c0.9,0.9,1.9,1.8,2.8,2.6c0.2,0.1,0.3,0.3,0.5,0.4c0.8,0.7,1.6,1.4,2.4,2.1c0.3,0.3,0.7,0.6,1,0.9
			c0.7,0.6,1.3,1.1,2,1.7c0.4,0.3,0.7,0.6,1.1,0.9c0.6,0.5,1.3,1,2,1.6c0.4,0.3,0.8,0.6,1.1,0.9c0.7,0.5,1.4,1.1,2.1,1.6
			c0.3,0.2,0.6,0.5,1,0.7c1,0.8,2.1,1.5,3.2,2.3c0.1,0.1,0.2,0.1,0.2,0.2c1,0.7,2,1.4,3,2c0.4,0.2,0.7,0.5,1.1,0.7
			c0.7,0.5,1.5,1,2.2,1.4c0.4,0.3,0.8,0.5,1.2,0.8c0.7,0.4,1.4,0.9,2.2,1.3c0.4,0.2,0.8,0.5,1.3,0.7c0.8,0.4,1.5,0.9,2.3,1.3
			c0.4,0.2,0.8,0.4,1.1,0.6c1.1,0.6,2.2,1.1,3.2,1.7c0.1,0,0.2,0.1,0.3,0.1c1.2,0.6,2.4,1.2,3.6,1.7c0.4,0.2,0.8,0.3,1.1,0.5
			c0.8,0.4,1.7,0.8,2.5,1.1c0.5,0.2,0.9,0.4,1.4,0.6c0.8,0.3,1.6,0.7,2.4,1c0.5,0.2,0.9,0.4,1.4,0.6c0.3,0.1,0.6,0.2,0.8,0.3
			c6.5,2.6,10.8,8.9,10.8,15.9v48.3c0,61.8-18,123-52.2,176.8c-30.3,47.7-72.5,93.2-123,125v0.5c2.7,0,5.5-0.7,8-2l1-0.5
			c60.2-31.7,110.3-77.2,144.9-131.6c34.1-53.8,52.2-114.9,52.2-176.8v-48.3C541.2,189.8,537,183.5,530.5,180.9z"/>
		<path class="st5" d="M322.5,560.5L322.5,560.5l1,0.5c3.6,1.9,7.7,2.9,11.7,2.9c4,0,8-1,11.7-2.9l1-0.5
			c61.5-32.3,112.6-78.8,147.9-134.4c35-55.1,53.4-117.6,53.4-181v-48.3c0-10.3-6.2-19.5-15.8-23.3c-34.1-13.5-61.2-38.4-76.3-70.1
			c-4.1-8.6-13-14.2-22.6-14.2H235.8c-9.6,0-18.5,5.6-22.6,14.2c-15.1,31.7-42.2,56.5-76.3,70.1c-9.6,3.8-15.8,12.9-15.8,23.3v48.3
			c0,63.4,18.5,125.9,53.4,181C209.9,481.7,261.1,528.2,322.5,560.5z M137.1,245.1v-48.3c0-3.8,2.3-7.1,5.7-8.5
			c37.9-15,68-42.7,84.8-78c1.5-3.1,4.7-5.1,8.2-5.1h198.7c3.5,0,6.8,2,8.2,5.1c16.8,35.3,46.9,63,84.8,78c3.5,1.4,5.7,4.7,5.7,8.5
			v48.3c0,60.3-17.6,120-51,172.5c-33.8,53.3-82.9,97.8-141.9,128.8l-1,0.5c-2.7,1.4-5.9,1.4-8.5,0l-1-0.5
			c-59-31-108.1-75.6-141.9-128.8C154.7,365.1,137.1,305.5,137.1,245.1z"/>
		<path class="st5" d="M573.1,320.4c-4.3-1-8.5,1.7-9.5,6C539.5,433.2,466,525.9,361.9,580.6l-24.2,12.7c-1.6,0.8-3.4,0.8-5,0
			l-24.2-12.7C204.2,525.8,130.6,433,106.6,325.9c-1-4.3-5.2-7-9.5-6c-4.3,1-7,5.2-6,9.5c25.1,111.6,101.6,208.3,210,265.2
			l24.2,12.7c3.1,1.6,6.5,2.4,9.9,2.4c3.4,0,6.8-0.8,9.9-2.4l24.2-12.7C477.5,537.7,554,441.2,579.1,329.9
			C580.1,325.6,577.4,321.3,573.1,320.4z"/>
		<path class="st5" d="M569.3,143.3c-42.3-4.5-75.6-34.2-81-72.3c-1.5-10.5-10.5-18.5-21-18.5H203.1c-10.5,0-19.6,7.9-21,18.5
			c-5.3,38.1-38.6,67.8-81,72.3c-10.7,1.1-18.8,10.2-18.8,21.1v85.2c0,12.4,0.6,24.9,1.9,37.2c0.4,4.1,3.9,7.1,7.9,7.1
			c0.3,0,0.5,0,0.8,0c4.4-0.4,7.5-4.3,7.1-8.7c-1.2-11.8-1.8-23.7-1.8-35.6v-85.2c0-2.7,2-5,4.6-5.3c49.6-5.2,88.7-40.5,95-85.9
			c0.4-2.8,2.6-4.8,5.3-4.8h264.2c2.7,0,4.9,2,5.3,4.8c6.3,45.3,45.4,80.6,95,85.9c2.6,0.3,4.6,2.6,4.6,5.3v85.2
			c0,11.7-0.6,23.5-1.8,35.2c-0.4,4.4,2.7,8.2,7.1,8.7c4.4,0.4,8.2-2.7,8.7-7.1c1.2-12.2,1.9-24.6,1.9-36.8v-85.2
			C588.1,153.5,580,144.4,569.3,143.3z"/>
		<g>
		</g>
	</g>
</g>
<g id="Layer_1">
	<g>
		<path class="st6" d="M343.3,155.4v33.4c0,4.5-3.6,8.1-8.1,8.1s-8.1-3.6-8.1-8.1v-33.4c0-4.5,3.6-8.1,8.1-8.1
			S343.3,150.9,343.3,155.4z"/>
		<path class="st7" d="M343.3,155.4v33.4c0,4.5-3.6,8.1-8.1,8.1v-49.6C339.7,147.4,343.3,150.9,343.3,155.4z"/>
		<path class="st8" d="M399.9,120.9h-64.7c-4.5,0-8.1,3.6-8.1,8.1v32.3c0,4.5,3.6,8.1,8.1,8.1h32.3c22.3,0,40.4-18.1,40.4-40.4
			C407.9,124.5,404.4,120.9,399.9,120.9z"/>
		<path class="st9" d="M407.9,129c0,22.3-18.1,40.4-40.4,40.4h-32.3v-48.5h64.7C404.4,120.9,407.9,124.5,407.9,129z"/>
		<path class="st10" d="M458.1,235.4l-1.6,16H213.9l-1.6-16c45.4-9.1,82.6-21.6,116.8-62.5c1.6-1.9,3.9-2.7,6.1-2.7
			c2.3,0,4.5,0.8,6.1,2.7C382.9,222.7,433,230.4,458.1,235.4z"/>
		<g>
			<path class="st11" d="M458.1,235.4l-1.6,16H335.2v-81.2c2.3,0,4.5,0.8,6.1,2.7C382.9,222.7,433,230.4,458.1,235.4z"/>
			<polygon class="st11" points="407.9,251.4 391.8,283.7 429.8,366.8 448.4,369.8 448.4,251.4 			"/>
		</g>
		<polygon class="st10" points="262.4,251.4 222,251.4 222,369.8 240.5,366.8 278.6,283.7 		"/>
		<path class="st12" d="M262.4,251.4v32.3c0,25.8-24.2,65.8-40.4,86.1c0,1.8,0,14.5,0,16.2l31.3-7.9l73.8-94.3v-32.3H262.4z"/>
		<path class="st13" d="M407.9,279v-32.3h-64.7V279l57.7,105.5l47.4-3.2v-16.2C432.1,344.9,407.9,304.8,407.9,279z"/>
		<path class="st14" d="M426.1,386l-10,11H254.3l-10-11c-3.2-3.5-1.7-9.2,2.9-10.6c42.3-13.1,79.9-49.2,79.9-91.6h16.2
			c0,42.4,37.6,78.6,79.9,91.6C427.7,376.7,429.3,382.4,426.1,386z"/>
		<path class="st15" d="M433.3,378L416,396.9h-80.9V283.7h8.1C343.3,329.5,387.1,368,433.3,378z"/>
		<path class="st10" d="M448.4,385.9v10.7c-47.1-3.2-94.8-34.1-113.2-76c-18.4,41.9-66.1,72.8-113.2,76v-10.7
			c91.4-41.9,80.9-109.6,80.9-134.5h64.7v32.3C367.5,328,408.3,367.5,448.4,385.9z"/>
		<path class="st11" d="M448.4,385.9v10.7c-47.1-3.2-94.8-34.1-113.2-76v-69.2h32.3v32.3C367.5,328,408.3,367.5,448.4,385.9z"/>
		<path class="st16" d="M464.5,388.8c0,4.5-3.6,8.1-8.1,8.1H213.9c-4.5,0-8.1-3.6-8.1-8.1c0-4.5,3.6-8.1,8.1-8.1h242.6
			C461,380.8,464.5,384.3,464.5,388.8z"/>
		<path class="st17" d="M230.1,283.7L230.1,283.7c-13.4,0-24.3-10.9-24.3-24.3v-16.2c0-4.5,3.6-8.1,8.1-8.1h40.4v24.3
			C254.3,272.9,243.5,283.7,230.1,283.7z"/>
		<path class="st10" d="M278.6,283.7L278.6,283.7c-13.4,0-24.3-10.9-24.3-24.3v-24.3h48.5v24.3C302.8,272.9,292,283.7,278.6,283.7z"
			/>
		<path class="st11" d="M391.8,283.7L391.8,283.7c-13.4,0-24.3-10.9-24.3-24.3v-24.3H416v24.3C416,272.9,405.2,283.7,391.8,283.7z"
			/>
		<path class="st18" d="M440.3,283.7L440.3,283.7c-13.4,0-24.3-10.9-24.3-24.3v-24.3h40.4c4.5,0,8.1,3.6,8.1,8.1v16.2
			C464.5,272.9,453.7,283.7,440.3,283.7z"/>
		<path class="st17" d="M367.5,235.2v16.2c0,17.8-14.6,32.3-32.3,32.3c-8.9,0-17-3.6-22.8-9.5c-6-5.8-9.5-13.9-9.5-22.8v-16.2H367.5
			z"/>
		<path class="st19" d="M464.5,388.8c0,4.5-3.6,8.1-8.1,8.1H335.2v-16.2h121.3C461,380.8,464.5,384.3,464.5,388.8z"/>
		<path class="st18" d="M367.5,235.2v16.2c0,17.8-14.6,32.3-32.3,32.3v-48.5H367.5z"/>
		<g>
		</g>
		<g>
		</g>
		<g>
		</g>
		<g>
		</g>
		<g>
		</g>
		<g>
		</g>
		<g>
		</g>
		<g>
		</g>
		<g>
		</g>
		<g>
		</g>
		<g>
		</g>
		<g>
		</g>
		<g>
		</g>
		<g>
		</g>
		<g>
		</g>
	</g>
	<g>
		<polygon class="st20" points="359.1,446.3 359.1,431.1 320.1,431.1 320.1,446.3 339.6,463.6 		"/>
		<path class="st21" d="M389.3,453.4l-26.8-6.3c-0.4-0.1-0.8-0.3-1.1-0.5l-21.7,12.7L318.7,446c-0.5,0.5-1.2,0.9-2,1.1l-26.8,6.3
			c-3.9,0.9-6.7,4.4-6.7,8.4v21.3l56.4,10.9l56.4-10.9v-21.3C396,457.8,393.2,454.3,389.3,453.4z"/>
		<path class="st22" d="M320.1,431.1v16c24.6,8.9,39-13.3,39-13.3v-2.7H320.1L320.1,431.1z"/>
		<path class="st23" d="M311.4,381.2l1.9,41.6c0.2,3.9,2.1,7.5,5.2,9.8l9,6.7c2.3,1.7,5,2.6,7.8,2.6h8.7c2.8,0,5.6-0.9,7.8-2.6
			l9-6.7c3.1-2.3,5-5.9,5.2-9.8l1.9-41.6H311.4z"/>
		<path class="st20" d="M333.1,389.9c8.7,0,21.7-2.2,24.8-8.7h-46.5l1.9,41.6c0.2,3.9,2.1,7.5,5.2,9.8l9,6.7c2.3,1.7,5,2.6,7.8,2.6
			h4.3c-4.3,0-13-8.7-13-19.5c0-5.3,0-19.5,0-26C326.6,394.2,328.8,389.9,333.1,389.9z"/>
		<g>
			<path class="st24" d="M380.1,469.1l14.1-12.6c1.2,1.5,1.9,3.4,1.9,5.4v17c0,2.4-1.9,4.3-4.3,4.3h-15.2v-6
				C376.5,474.1,377.8,471.1,380.1,469.1z"/>
			<path class="st24" d="M299.2,469.1l-14.1-12.6c-1.2,1.5-1.9,3.4-1.9,5.4v17c0,2.4,1.9,4.3,4.3,4.3h15.2v-6
				C302.8,474.1,301.4,471.1,299.2,469.1z"/>
		</g>
		<polygon class="st25" points="345,492.9 334.2,492.9 335.6,463.6 343.7,463.6 		"/>
		<path class="st26" d="M345,459.3h-10.8v2.6c0,2.2,1.8,3.9,3.9,3.9h2.9c2.2,0,3.9-1.8,3.9-3.9L345,459.3L345,459.3z"/>
		<g>
			<path class="st24" d="M319.8,441.5l19.8,17.8c0,0-5.6,2.8-12.4,8.5c-1.4,1.2-3.6,0.7-4.3-1l-9.3-20.5l2.9-4.4
				C317.3,440.8,318.8,440.6,319.8,441.5z"/>
			<path class="st24" d="M359.4,441.5l-19.8,17.8c0,0,5.6,2.8,12.4,8.5c1.4,1.2,3.6,0.7,4.3-1l9.3-20.5l-2.9-4.4
				C362,440.8,360.4,440.6,359.4,441.5z"/>
		</g>
		<path class="st27" d="M352.8,366.9l2,14.4c9.3,1.9,10.6,16.4,10.8,20.6c0,0.8,0.3,1.5,0.7,2.1l3.5,5.5c0,0-1.2-9.1,4.3-15.2
			C374.2,394.2,376.1,358.2,352.8,366.9z"/>
		<path class="st23" d="M372,408.5l-2.4,9.8c-0.3,1.2-1.3,2-2.5,2l0,0c-1.3,0-2.4-1-2.6-2.3l-1.3-10c-0.3-2.7,1.8-5,4.5-5h0
			C370.6,402.9,372.7,405.7,372,408.5z"/>
		<path class="st28" d="M313.5,363l3.2,2.2c-14.5,10.7-11.8,29.1-11.8,29.1c4.3,4.3,4.3,15.2,4.3,15.2l4.3-4.3
			c0,0-1.7-12.5,6.5-17.3c7.6-4.5,14.2-2.2,21-2.2c18.2,0,23.2-6.8,22.4-15.2c-0.5-4.3-7-13.3-23.9-13
			C332.8,357.5,320.1,359.5,313.5,363z"/>
		<path class="st29" d="M312.2,383.7c0,0-2.3-9.1,4.5-18.5c-14.5,10.7-11.8,29.1-11.8,29.1c4.3,4.3,4.3,15.2,4.3,15.2l4.3-4.3
			c0,0-1.7-12.5,6.5-17.3c7.6-4.5,14.2-2.2,21-2.2c3,0,5.5-0.2,7.8-0.5C334.9,385.5,326.7,374.9,312.2,383.7z"/>
		<path class="st20" d="M307.2,408.5l2.4,9.8c0.3,1.2,1.3,2,2.5,2l0,0c1.3,0,2.4-1,2.6-2.3l1.3-10c0.3-2.7-1.8-5-4.5-5h0
			C308.7,402.9,306.5,405.7,307.2,408.5z"/>
		<path class="st24" d="M366.8,478.8h-13.2c-1.7,0-3.2,1.4-3.2,3.2v7.2H370V482C370,480.2,368.6,478.8,366.8,478.8z"/>
		
			<rect x="240.3" y="479.1" transform="matrix(0.7071 -0.7071 0.7071 0.7071 -268.0574 328.6955)" class="st30" width="44.9" height="17.7"/>
		<path class="st31" d="M261.2,477c3.8,4.5,8,8.7,12.5,12.5l11.2-11.2l-12.5-12.5L261.2,477z"/>
		<path class="st30" d="M339.6,318.3c-51.2,0-92.7,41.5-92.7,92.7s41.5,92.7,92.7,92.7s92.7-41.5,92.7-92.7S390.8,318.3,339.6,318.3
			z M339.6,489.1c-43.1,0-78.1-35-78.1-78.1c0-43.1,35-78.1,78.1-78.1c43.1,0,78.1,35,78.1,78.1
			C417.7,454.2,382.7,489.1,339.6,489.1z"/>
		<path class="st32" d="M162.5,598.5l-10.4-10.4c-3.8-3.8-3.8-10,0-13.8l82.4-82.4c3.8-3.8,10-3.8,13.8,0l10.4,10.4
			c3.8,3.8,3.8,10,0,13.8l-82.4,82.4C172.5,602.4,166.3,602.4,162.5,598.5z"/>
		<path class="st25" d="M161.9,584.1l82.4-82.4c3.8-3.8,10-3.8,13.8,0l0.6,0.6c0,0,0,0,0,0L248.3,492c-3.8-3.8-10-3.8-13.8,0
			l-82.4,82.4c-3.8,3.8-3.8,10,0,13.8l9.8,9.8C158.1,594.1,158.1,588,161.9,584.1z"/>
		<path class="st31" d="M252.7,522.2l6-6c3.8-3.8,3.8-10,0-13.8L248.3,492c-3.8-3.8-10-3.8-13.8,0l-6,6L252.7,522.2z"/>
		<g class="st33">
			<path class="st34" d="M238.3,507.8l6-6c3.8-3.8,10-3.8,13.8,0l0.6,0.6c0,0,0,0,0,0L248.3,492c-3.8-3.8-10-3.8-13.8,0l-6,6
				L238.3,507.8z"/>
		</g>
		<g>
		</g>
		<g>
		</g>
		<g>
		</g>
		<g>
		</g>
		<g>
		</g>
		<g>
		</g>
		<g>
		</g>
		<g>
		</g>
		<g>
		</g>
		<g>
		</g>
		<g>
		</g>
		<g>
		</g>
		<g>
		</g>
		<g>
		</g>
		<g>
		</g>
	</g>
	<g>
		<path class="st35" d="M688.7,199.5v131.3h161.6v39.6H688.7v143h-39.1v-353h205.7v39.1H688.7z"/>
		<path class="st35" d="M926.9,387.4c0,14.2,1.5,27.3,4.5,39.2c3,11.9,7,22.2,12,30.8c5,8.6,11.4,15.3,19.2,20
			c7.8,4.8,17.2,7.1,28.2,7.1c16,0,28.9-3.9,38.6-11.8c9.7-7.8,16.2-17.8,19.5-29.8l32.6,11.3c-2.3,7.5-5.6,15.1-9.8,22.7
			c-4.2,7.6-9.8,14.4-16.8,20.5c-7,6.1-15.7,11.1-26.2,15c-10.4,3.9-23.1,5.9-38,5.9c-32.9,0-58-11.9-75.2-35.8
			c-17.2-23.9-25.8-59.4-25.8-106.5c0-25.4,2.6-46.9,7.9-64.5c5.3-17.6,12.4-31.9,21.4-43c9-11,19.5-19,31.6-23.9
			c12-4.9,24.9-7.4,38.6-7.4c18.7,0,34.3,3.7,46.8,11c24.2,14.2,39.7,39.6,46.3,76.2c3.2,17.5,4.8,36.5,4.8,56.9v6H926.9z
			 M1050.2,352.8c0-30.2-5.6-51.5-16.9-63.8c-11.3-12.3-26.1-18.4-44.5-18.4c-13,0-25.7,5.5-38.1,16.5c-15,12.9-23,34.7-23.8,65.6
			H1050.2z"/>
		<path class="st35" d="M1301.2,438.5c0,12.7-2,24-6,33.9c-4,9.9-9.9,18.3-17.5,25.1c-7.7,6.8-17.1,11.9-28.3,15.5
			c-11.2,3.6-24,5.4-38.3,5.4c-12.9,0-24.5-1.2-34.8-3.6c-10.4-2.4-19.4-6.3-27.2-11.6c-7.8-5.3-14.3-12.4-19.5-21.2
			c-5.3-8.8-9.1-19.5-11.6-32.2l32.6-7.8c3.2,14.5,9.7,25.2,19.5,31.9c9.9,6.8,23.5,10.1,41.1,10.1c8,0,15.3-0.7,21.9-2
			c6.6-1.3,12.3-3.6,17.2-6.9c4.8-3.3,8.6-7.6,11.3-13c2.7-5.4,4-12.2,4-20.2c0-8.2-1.6-14.9-4.8-20.2c-3.2-5.3-7.6-9.7-13.1-13.2
			c-5.6-3.5-12.4-6.5-20.4-9l-26.6-8.7c-8.9-2.8-17.7-6-26.4-9.5c-8.8-3.5-16.7-8.1-23.7-13.9c-7-5.8-12.7-12.9-17.2-21.4
			c-4.4-8.5-6.6-19.2-6.6-32.1c0-24.7,7.2-43.5,21.7-56.5c14.4-12.9,35.5-19.4,63.3-19.4c24.5,0,44,5.3,58.5,15.8
			c14.4,10.5,23.6,27.4,27.4,50.6l-33.3,5c-1.2-7-3.4-12.9-6.8-17.7c-3.3-4.8-7.4-8.6-12-11.5c-4.7-2.9-9.9-5-15.7-6.3
			c-5.8-1.3-11.8-1.9-18.2-1.9c-16.7,0-29,3.1-36.9,9.3c-7.9,6.2-11.9,15.6-11.9,28.2c0,7.4,1.5,13.5,4.4,18.2
			c2.9,4.8,7,8.8,12.2,12.1c5.2,3.3,11.5,6.1,18.9,8.4l24.7,7.7l18,5.6c6.2,2.2,12.2,4.7,18,7.6c5.8,2.9,11.3,6.3,16.4,10.3
			c5.1,3.9,9.6,8.6,13.4,14.1s6.9,11.9,9.1,19.3C1300,420.3,1301.2,428.8,1301.2,438.5z"/>
		<path class="st35" d="M1430.4,511.4c-5.7,1.8-11.4,3.3-17.3,4.4c-5.8,1.1-12.6,1.6-20.3,1.6c-29.6,0-44.3-20.5-44.3-61.4V275.2
			h-25.8v-32.8h27.3l10.8-60.6h24.8v60.6h41.1v32.8h-41.1v171.1c0,13,1.8,22.2,5.3,27.4c3.5,5.3,9.5,7.9,18,7.9c3.5,0,7-0.3,10.4-1
			c3.4-0.7,7.1-1.5,11.1-2.5V511.4z"/>
		<path class="st35" d="M1461.5,184.7v-43.1h37.1v43.1H1461.5z M1461.5,513.4v-271h37.1v271H1461.5z"/>
		<path class="st35" d="M1788.1,416c0,14.9-2.4,28.6-7.1,41.1c-4.8,12.5-12.1,23.3-21.9,32.4c-9.9,9.1-22.3,16.2-37.2,21.3
			c-14.9,5.1-32.7,7.6-53.2,7.6c-36.1,0-64.2-7.7-84.3-23c-20.1-15.4-32.9-37.6-38.5-66.6l38.1-9.3c1.8,9.2,4.8,17.5,8.8,25.1
			c4,7.5,9.4,14,16.2,19.4c6.8,5.4,15.2,9.6,25.2,12.6c10,3,22,4.5,35.8,4.5c11.7,0,22.4-1.2,32.2-3.6c9.8-2.4,18.1-6.1,25.1-11.1
			c6.9-5,12.4-11.5,16.3-19.4c3.9-7.9,5.9-17.4,5.9-28.4c0-11.5-2.2-20.8-6.5-28c-4.3-7.2-10.4-13.1-18.2-17.8
			c-7.8-4.7-17.1-8.6-28-11.8l-35.8-10.6c-7.9-2.3-15.9-4.7-24.2-7.2c-8.3-2.5-16.1-5.5-23.6-9.1c-7.5-3.6-14.5-7.8-21-12.6
			c-6.5-4.8-12.2-10.6-17-17.4c-4.8-6.8-8.6-14.6-11.4-23.5c-2.8-8.9-4.1-19.2-4.1-30.9c0-16.7,2.8-31,8.4-43
			c5.6-11.9,13.3-21.8,23.2-29.4c9.9-7.7,21.5-13.3,34.9-16.8c13.4-3.5,27.9-5.3,43.5-5.3c17.9,0,33.2,1.7,46,5.1
			c12.8,3.4,23.5,8.6,32.3,15.4c8.8,6.8,15.8,15.3,21,25.4c5.3,10.1,9.5,21.8,12.6,35.2l-38.6,8.3c-1.8-8.5-4.6-16.1-8.3-22.8
			c-3.7-6.7-8.5-12.3-14.4-16.8c-5.9-4.5-13.1-7.9-21.5-10.3c-8.4-2.3-18.3-3.5-29.7-3.5c-13.4,0-24.6,1.5-33.7,4.4
			c-9.1,2.9-16.4,6.9-21.9,11.9c-5.5,5-9.5,10.9-11.9,17.7c-2.4,6.8-3.6,14.1-3.6,22c0,10.5,2.2,19.2,6.5,26
			c4.3,6.8,10.2,12.4,17.5,16.9c7.3,4.5,15.9,8.2,25.7,11.1c9.8,2.9,20,5.9,30.8,9.1l26.7,7.9c8.9,2.5,17.3,5.5,25.4,9.1
			c8.1,3.6,15.7,7.8,22.7,12.6c7,4.8,13.2,10.7,18.4,17.7c5.3,7,9.4,15.2,12.3,24.7C1786.7,392,1788.1,403.1,1788.1,416z"/>
		<path class="st35" d="M2023.6,376.6c0,20.5-1.3,39.5-4,56.9c-2.7,17.4-7.2,32.3-13.7,44.8c-6.4,12.5-14.9,22.3-25.3,29.4
			c-10.4,7.1-23.3,10.6-38.7,10.6c-15.9,0-29.8-3.7-41.7-11c-11.9-7.3-21-19.4-27.2-36.1h-1.3c0.2,0.3,0.3,1.8,0.4,4.5
			c0.1,2.7,0.2,6,0.3,10c0.1,4,0.2,8.5,0.2,13.4c0.1,4.9,0.1,9.8,0.1,14.7v106h-37.1V297.7c0-6.5,0-12.8-0.1-18.8
			s-0.2-11.5-0.2-16.4c-0.1-4.9-0.2-9.1-0.4-12.6c-0.2-3.5-0.3-6-0.5-7.5h35.8c0.2,0.5,0.3,2.3,0.5,5.3l0.8,10.8
			c0.2,4.3,0.3,8.9,0.5,13.8c0.2,4.8,0.3,9.4,0.3,13.8h0.7c3.3-8.7,7.2-16.1,11.6-22.2c4.4-6.1,9.5-11.1,15.2-15
			c5.7-3.9,11.9-6.8,18.8-8.5c6.8-1.8,14.6-2.6,23.3-2.6c15.4,0,28.3,3.3,38.7,10c10.4,6.7,18.9,16.1,25.3,28.2
			c6.4,12.1,11,26.7,13.7,43.8C2022.3,336.8,2023.6,355.7,2023.6,376.6z M1984.8,377.6c0-16.7-0.8-31.6-2.4-44.6
			c-1.6-13-4.4-24-8.5-33.1c-4.1-9-9.5-15.9-16.2-20.5c-6.7-4.7-15.1-7-25.3-7c-8.2,0-15.9,1.4-23.2,4.3c-7.3,2.8-13.6,8.3-19,16.3
			s-9.7,19.1-12.8,33.2c-3.1,14.1-4.6,32.4-4.6,55c0,19.2,1.3,35.4,3.9,48.7c2.6,13.3,6.4,24,11.4,32.2c5,8.2,11.2,14.1,18.5,17.7
			c7.3,3.6,15.9,5.4,25.6,5.4c10.4,0,18.9-2.4,25.6-7.3c6.7-4.8,12.1-11.9,16.2-21c4.1-9.2,6.9-20.4,8.5-33.7
			C1984,409.8,1984.8,394.7,1984.8,377.6z"/>
		<path class="st35" d="M2096.3,387.4c0,14.2,1.5,27.3,4.5,39.2c3,11.9,7,22.2,12,30.8c5,8.6,11.4,15.3,19.2,20
			c7.8,4.8,17.2,7.1,28.2,7.1c16,0,28.9-3.9,38.6-11.8c9.7-7.8,16.2-17.8,19.5-29.8l32.6,11.3c-2.3,7.5-5.6,15.1-9.8,22.7
			c-4.2,7.6-9.8,14.4-16.8,20.5c-7,6.1-15.7,11.1-26.2,15c-10.4,3.9-23.1,5.9-38,5.9c-32.9,0-58-11.9-75.2-35.8
			c-17.2-23.9-25.8-59.4-25.8-106.5c0-25.4,2.6-46.9,7.9-64.5c5.3-17.6,12.4-31.9,21.4-43c9-11,19.5-19,31.6-23.9
			c12-4.9,24.9-7.4,38.6-7.4c18.7,0,34.3,3.7,46.8,11c24.2,14.2,39.7,39.6,46.3,76.2c3.2,17.5,4.8,36.5,4.8,56.9v6H2096.3z
			 M2219.5,352.8c0-30.2-5.6-51.5-16.9-63.8c-11.3-12.3-26.1-18.4-44.5-18.4c-13,0-25.7,5.5-38.1,16.5c-15,12.9-23,34.7-23.8,65.6
			H2219.5z"/>
		<path class="st35" d="M2332,376.6c0,15.5,0.9,29.8,2.8,42.8c1.8,13,4.9,24.3,9.3,33.7c4.3,9.4,10.1,16.7,17.3,21.9
			c7.2,5.2,16.1,7.8,26.8,7.8c13.2,0,24.2-4.3,32.9-13c8.8-8.7,14.2-22,16.2-40.1l37.6,3c-1.2,11.2-3.8,22-8,32.3
			c-4.2,10.4-9.8,19.5-16.8,27.3c-7,7.9-15.6,14.2-25.8,18.9c-10.2,4.8-21.9,7.1-35.1,7.1c-17.4,0-32.2-3.6-44.5-10.8
			c-12.3-7.2-22.2-17.1-29.8-29.7c-7.6-12.6-13.1-27.5-16.5-44.6c-3.4-17.1-5.1-35.7-5.1-55.7c0-18.2,1.3-34.3,3.8-48.2
			s6-26.1,10.4-36.6c4.4-10.4,9.6-19.2,15.7-26.3c6-7.1,12.6-12.8,19.7-17c7.1-4.3,14.5-7.3,22.3-9.3c7.8-1.9,15.7-2.9,23.7-2.9
			c12.5,0,23.6,2.1,33.3,6.3c9.7,4.2,18.1,9.9,25.2,17.2c7.1,7.3,12.8,15.8,17.2,25.7c4.3,9.9,7.4,20.5,9.3,31.8l-38.1,3.5
			c-1.8-15-6.7-27-14.5-35.8c-7.9-8.8-19-13.3-33.3-13.3c-10.5,0-19.3,2.1-26.4,6.4c-7.1,4.3-12.8,10.7-17.2,19.3
			c-4.3,8.6-7.4,19.4-9.3,32.4C2332.9,343.8,2332,359.1,2332,376.6z"/>
	</g>
</g>
</svg>
